This is a temporary take over by me for PirateGarrick from our team for approxemately three weeks. After that he will be uploading them again.

Borgias S01E06 HDTV 720p ENG + NL Subs

Ierland / Canada / Hongarije ~ elke aflevering duurt ongeveer 50 minuten ~ gecreëerd door Neil Jordan ~ met Jeremy Irons, François Arnaud en Holliday Grainger.

Della Rovere bereikt Frankrijk en komt met zijn vorst om Italië binnen te vallen en hem op de Troon van Papal te installeren in ruil voor controle over Napels; Rodrigo probeert de invasie te dwarsbomen middels een aliantie door zijn jongste zoon te trouwen met Prinses Sancia van Napels (gastrol van Emmannuelle Chriqui), maar Juan saboteert bijna het plan door zijn aanstaande schoonzus te verleiden.

Bestandsformaat: .MKV
Bestandsgrootte: 1,45 GB
Taal: Engels in DD5.1
Ondertitelingen: Engels en Nederlands ~ Nederlands custom door quetsbeek(in te stellen)
Categorie : Serie
Formaat : 16:9
Bron : HDTV
Menu: Nee
Extra's: Nee
Genre : Misdaad ~ Drama ~ Historie
Weblink :  http://www.imdb.com/title/tt1582457/

~~~~~~~~~~~~~~~~~~~~~~
Ireland / Canada / Hungary ~ every episode lasts about 50 minutes ~ created by Neil Jordan ~ with Jeremy Irons, François Arnaud and Holliday Grainger

Della Rovere reaches France and strikes a bargain with its ruler to invade Italy and install him on the Papal throne in exchange for control of Naples; Rodrigo attempts to thwart the invasion through an alliance by marrying his youngest son Joffre to Princess Sancia of Naples (guest star Emmannuelle Chriqui), but Juan nearly sabotages the plan by seducing his prospective sister-in-law.

File Format: .MKV
File size: 1.45 GB
Language: English in DD5.1
Subtitles: English and Dutch ~ Dutch custom by quetsbeek (selectable)
Category : Series
Format : 16:9
Source : HDTV
Menu: No
Extras: No
Genre : Drama ~ Misdaad ~ History
Weblink :  http://www.imdb.com/title/tt1582457/

Video and audio information:
~~~~~~~~~~~~~~~~~~~~~~
Video
ID                               : 2
Format                           : AVC
Format/Info                      : Advanced Video Codec
Format profile                   : High@L3.1
Format settings, CABAC           : Yes
Format settings, ReFrames        : 3 frames
Codec ID                         : V_MPEG4/ISO/AVC
Duration                         : 52mn 0s
Bit rate                         : 3 625 Kbps
Width                            : 1 280 pixels
Height                           : 720 pixels
Display aspect ratio             : 16:9
Frame rate                       : 23.976 fps
Color space                      : YUV
Chroma subsampling               : 4:2:0
Bit depth                        : 8 bits
Scan type                        : Progressive
Bits/(Pixel*Frame)               : 0.164
Stream size                      : 1.29 GiB (88%)
Writing library                  : x264 core 85 r1442tw
Encoding settings                : cabac=1 / ref=3 / deblock=1:0:0 / analyse=0x3:0x113 / me=hex / subme=6 / psy=1 / psy_rd=1.00:0.00 / mixed_ref=0 / me_range=16 / chroma_me=1 / trellis=1 / 8x8dct=1 / cqm=0 / deadzone=21,11 / fast_pskip=1 / chroma_qp_offset=-2 / threads=30 / sliced_threads=0 / nr=0 / decimate=1 / mbaff=0 / constrained_intra=0 / bframes=6 / b_pyramid=1 / b_adapt=1 / b_bias=0 / direct=1 / wpredb=1 / wpredp=0 / keyint=240 / keyint_min=24 / scenecut=40 / intra_refresh=0 / rc_lookahead=40 / rc=2pass / mbtree=1 / bitrate=3625 / ratetol=1.0 / qcomp=0.60 / qpmin=10 / qpmax=51 / qpstep=4 / cplxblur=20.0 / qblur=0.5 / ip_ratio=1.40 / aq=1:1.00
Language                         : English

Audio
ID                               : 1
Format                           : AC-3
Format/Info                      : Audio Coding 3
Mode extension                   : CM (complete main)
Codec ID                         : A_AC3
Duration                         : 52mn 0s
Bit rate mode                    : Constant
Bit rate                         : 384 Kbps
Channel(s)                       : 6 channels
Channel positions                : Front: L C R, Side: L R, LFE
Sampling rate                    : 48.0 KHz
Bit depth                        : 16 bits
Compression mode                 : Lossy
Stream size                      : 143 MiB (10%)

~~~~~~~~~~~~~~~
Hornigold TBS
~~~~~~~~~~~~~~~